<?xml version="1.0" encoding="UTF-8" standalone="no"?>
<!-- Created with Inkscape (http://www.inkscape.org/) -->
<svg version="1.1" id="Layer_1" xmlns="http://www.w3.org/2000/svg" xmlns:xlink="http://www.w3.org/1999/xlink" x="0px" y="0px"
    viewBox="0 0 98 244" style="enable-background:new 0 0 98 244;" xml:space="preserve">

  <clipPath id="clip-path">
    <path id="rhombuspath" d="M7.6,236.7c-0.8-1.1-1.1-3.1-1.2-5C5.8,222.3,1.8,80.2,1.8,18c0-1.3-0.1-3.4-0.1-4.2c-0.1-1-0.1-2.1-0.2-2.8
    	c0,0,0.1-0.6,0.1-0.7c0-0.2-0.1-0.5-0.1-0.7c6.2-1.9,16.2-4.5,28.8-6.1c40.8-5.1,66.7,5.9,66.7,6.5c0,0,0,0.3,0,0.8c0,0,0,0.2,0,0.3
    	c0,0.9,0,2.5,0,3.6c0,1.7-0.1,3-0.1,4.6c-0.9,85.4-3.3,208.1-3.6,214.1c-0.1,1.3-0.3,3.5-2.6,4.6c0,0-0.3,0.1-0.8,0.4
    	c-0.9,0.4-2.4,0.9-3.7,1.2c-3.7,0.7-22.2,3.3-37,2.8c-1.4,0-17.3-0.7-19.1-0.8c-3.6-0.2-7.7-0.5-11.4-1c-3.3-0.5-6.4-1.2-8.5-2
    	C9,238,8.1,237.4,7.6,236.7z"
        fill="#000000" />
  </clipPath>
  <path
     id="clip-mask"
     d="M7.6,236.7c-0.8-1.1-1.1-3.1-1.2-5C5.8,222.3,1.8,80.2,1.8,18c0-1.3-0.1-3.4-0.1-4.2c-0.1-1-0.1-2.1-0.2-2.8
     	c0,0,0.1-0.6,0.1-0.7c0-0.2-0.1-0.5-0.1-0.7c6.2-1.9,16.2-4.5,28.8-6.1c40.8-5.1,66.7,5.9,66.7,6.5c0,0,0,0.3,0,0.8c0,0,0,0.2,0,0.3
     	c0,0.9,0,2.5,0,3.6c0,1.7-0.1,3-0.1,4.6c-0.9,85.4-3.3,208.1-3.6,214.1c-0.1,1.3-0.3,3.5-2.6,4.6c0,0-0.3,0.1-0.8,0.4
     	c-0.9,0.4-2.4,0.9-3.7,1.2c-3.7,0.7-22.2,3.3-37,2.8c-1.4,0-17.3-0.7-19.1-0.8c-3.6-0.2-7.7-0.5-11.4-1c-3.3-0.5-6.4-1.2-8.5-2
     	C9,238,8.1,237.4,7.6,236.7z"
     fill="#000000"  />
</svg>
