<?xml version="1.0" encoding="UTF-8" standalone="no"?>
<!-- Created with Inkscape (http://www.inkscape.org/) -->
<svg version="1.1" id="Layer_1" xmlns="http://www.w3.org/2000/svg" xmlns:xlink="http://www.w3.org/1999/xlink" x="0px" y="0px"
	 viewBox="-86 95 102 153" style="enable-background:new -86 95 102 153;" xml:space="preserve">

  <clipPath id="clip-path">
    <path id="rhombuspath" d="M-39.4,247c-0.1,0-0.7,0-1.4,0c-2,0-1.5,0.2-10.1-1.1c-3.8-0.6-6.7-1.3-8.7-2.1c-1.6-0.7-2.6-1.4-3.2-2.3
    	c-0.9-1.2-1.2-3.3-1.4-5.6c-0.6-6.7-2.6-11.5-5.2-17.7c-5.9-14.3-14.9-36-14.9-104.7v-0.4c0-1.3,0-2.9-0.1-3.6c0-0.5,0-1,0-1.5
    	s0-0.9,0-1.2c0-0.1,0-0.2,0-0.3v-0.2c0-0.2,0-0.4,0-0.5c0-0.1,0-0.1,0-0.2l1-1.1c-0.1,0-0.1,0-0.1,0c10.2-3,22.7-5.6,37-6.5
    	c18.9-1.2,33.3,0.9,38.3,1.8c8.5,1.4,15.6,3.3,21,5c0,0-0.2,0.1-0.3,0.3l0.7,0.3l1.1-0.1v0.5h0.1c0-0.1,0-0.2,0-0.2
    	c0,0.2,0.1,0.5,0.1,0.7v0.2c0,0.4,0,0.9,0,1.4c0,0.9,0,1.8-0.1,2.5v0.3c-0.1,1.5-0.2,2.7-0.2,4.2c0,72.2-9.9,94.8-15.9,108.3
    	c-2.4,5.5-4.2,9.5-4.2,14.6c0,2.6-1.1,4.5-3.1,5.5c0,0-0.4,0.2-0.9,0.4c0,0,0.9-0.4,0,0C-10.4,243.8-33.4,247.3-39.4,247z"
        fill="#000000" />
  </clipPath>
  <path
     id="clip-mask"
     d="M-39.4,247c-0.1,0-0.7,0-1.4,0c-2,0-1.5,0.2-10.1-1.1c-3.8-0.6-6.7-1.3-8.7-2.1c-1.6-0.7-2.6-1.4-3.2-2.3
     	c-0.9-1.2-1.2-3.3-1.4-5.6c-0.6-6.7-2.6-11.5-5.2-17.7c-5.9-14.3-14.9-36-14.9-104.7v-0.4c0-1.3,0-2.9-0.1-3.6c0-0.5,0-1,0-1.5
     	s0-0.9,0-1.2c0-0.1,0-0.2,0-0.3v-0.2c0-0.2,0-0.4,0-0.5c0-0.1,0-0.1,0-0.2l1-1.1c-0.1,0-0.1,0-0.1,0c10.2-3,22.7-5.6,37-6.5
     	c18.9-1.2,33.3,0.9,38.3,1.8c8.5,1.4,15.6,3.3,21,5c0,0-0.2,0.1-0.3,0.3l0.7,0.3l1.1-0.1v0.5h0.1c0-0.1,0-0.2,0-0.2
     	c0,0.2,0.1,0.5,0.1,0.7v0.2c0,0.4,0,0.9,0,1.4c0,0.9,0,1.8-0.1,2.5v0.3c-0.1,1.5-0.2,2.7-0.2,4.2c0,72.2-9.9,94.8-15.9,108.3
     	c-2.4,5.5-4.2,9.5-4.2,14.6c0,2.6-1.1,4.5-3.1,5.5c0,0-0.4,0.2-0.9,0.4c0,0,0.9-0.4,0,0C-10.4,243.8-33.4,247.3-39.4,247z"
     fill="#000000"  />
</svg>
