<?xml version="1.0" encoding="UTF-8" standalone="no"?>
<!-- Created with Inkscape (http://www.inkscape.org/) -->
<svg version="1.1" id="Layer_1" xmlns="http://www.w3.org/2000/svg" xmlns:xlink="http://www.w3.org/1999/xlink" x="0px" y="0px"
	 viewBox="0 0 100 218" style="enable-background:new 0 0 100 218;" xml:space="preserve">

  <clipPath id="clip-path">
    <path id="rhombuspath" d="M23.1,211.9c-0.8-1.1-1-3.2-1.2-5.1c-2.1-22.8-19.6-98.8-20-189.1c0-1.4-0.1-3.5-0.1-4.3
    	c-0.1-1-0.1-2.2-0.2-2.9c0,0,0-0.1,0-0.1c0-0.2-0.1-0.5-0.1-0.7C4.4,8.2,8.7,6.5,14,5c7.5-2.1,13.5-2.5,16.5-2.7
    	c32.5-2,67,2.5,67.7,7.3c0.1,0.6,0.3,5.3,0.3,6.6c0,0.1,0,0.5,0,1.1c0,0.5,0,0.9,0,1.4c-1.7,101.4-20.1,171.8-20.1,190
    	c0,1.3-0.3,3.5-2.6,4.7c0,0-0.3,0.2-0.8,0.4c-0.9,0.4-2.4,1-3.7,1.2c-3.7,0.7-7.6,2-20.3,2.1c-1.4,0-3.2,0-5-0.1
    	c-3.6-0.2-7.7-0.5-11.4-1.1c-3.3-0.5-6.4-1.2-8.5-2.1C24.6,213.2,23.6,212.6,23.1,211.9z"
        fill="#000000" />
  </clipPath>
  <path
     id="clip-mask"
     d="M23.1,211.9c-0.8-1.1-1-3.2-1.2-5.1c-2.1-22.8-19.6-98.8-20-189.1c0-1.4-0.1-3.5-0.1-4.3
     	c-0.1-1-0.1-2.2-0.2-2.9c0,0,0-0.1,0-0.1c0-0.2-0.1-0.5-0.1-0.7C4.4,8.2,8.7,6.5,14,5c7.5-2.1,13.5-2.5,16.5-2.7
     	c32.5-2,67,2.5,67.7,7.3c0.1,0.6,0.3,5.3,0.3,6.6c0,0.1,0,0.5,0,1.1c0,0.5,0,0.9,0,1.4c-1.7,101.4-20.1,171.8-20.1,190
     	c0,1.3-0.3,3.5-2.6,4.7c0,0-0.3,0.2-0.8,0.4c-0.9,0.4-2.4,1-3.7,1.2c-3.7,0.7-7.6,2-20.3,2.1c-1.4,0-3.2,0-5-0.1
     	c-3.6-0.2-7.7-0.5-11.4-1.1c-3.3-0.5-6.4-1.2-8.5-2.1C24.6,213.2,23.6,212.6,23.1,211.9z"
     fill="#000000"  />
</svg>
